<svg width="20" height="20" viewBox="0 0 20 20" fill="none" xmlns="http://www.w3.org/2000/svg">
<path d="M10.0007 6.74956C8.20575 6.74956 6.75067 8.20463 6.75067 9.99956C6.75067 11.7945 8.20575 13.2496 10.0007 13.2496C11.7956 13.2496 13.2507 11.7945 13.2507 9.99956C13.2507 8.20463 11.7956 6.74956 10.0007 6.74956Z" fill="#C4C4C4"/>
<path fill-rule="evenodd" clip-rule="evenodd" d="M4.77021 1.08103C8.21833 0.695648 11.783 0.695648 15.2312 1.08103C17.1296 1.2932 18.6607 2.78898 18.8836 4.69403C19.2958 8.21903 19.2958 11.7801 18.8836 15.3051C18.6607 17.2101 17.1296 18.7059 15.2312 18.9181C11.783 19.3035 8.21833 19.3035 4.77021 18.9181C2.87181 18.7059 1.34062 17.2101 1.1178 15.3051C0.705523 11.7801 0.705523 8.21903 1.1178 4.69403C1.34062 2.78898 2.87181 1.2932 4.77021 1.08103ZM15.0007 3.99956C14.4484 3.99956 14.0007 4.44727 14.0007 4.99956C14.0007 5.55184 14.4484 5.99956 15.0007 5.99956C15.553 5.99956 16.0007 5.55184 16.0007 4.99956C16.0007 4.44727 15.553 3.99956 15.0007 3.99956ZM5.25067 9.99956C5.25067 7.3762 7.37732 5.24956 10.0007 5.24956C12.624 5.24956 14.7507 7.3762 14.7507 9.99956C14.7507 12.6229 12.624 14.7496 10.0007 14.7496C7.37732 14.7496 5.25067 12.6229 5.25067 9.99956Z" fill="#C4C4C4"/>
</svg>
